<svg xmlns="http://www.w3.org/2000/svg" width="233.548" height="124.178" viewBox="0 0 233.548 124.178">
  <g id="Group_72" data-name="Group 72" transform="translate(-566.227 -80.417)">
    <g id="Group_71" data-name="Group 71" transform="translate(2928.114 -340.583)">
      <circle id="_x31__Circle_3_" cx="8.704" cy="8.704" r="8.704" transform="translate(-2225.323 428.968)"/>
      <circle id="_x31__Circle_2_" cx="8.704" cy="8.704" r="8.704" transform="translate(-2191.734 428.968)"/>
      <path id="Path_33" data-name="Path 33" d="M319.507,99.507A17.4,17.4,0,0,0,336.915,82.1H302.1A17.474,17.474,0,0,0,319.507,99.507Z" transform="translate(-2569.348 368.076)"/>
      <path id="_x31__x2F_2_Triangle_2_" d="M263.2,99.444,284.775,62.3l21.453,37.144Z" transform="translate(-2584.073 358.7)"/>
      <path id="_x31__x2F_2_Triangle_1_" d="M391.2,99.444,412.653,62.3l21.453,37.144Z" transform="translate(-2562.446 358.7)"/>
      <rect id="Rectangle_3" data-name="Rectangle 3" width="17.409" height="37.146" transform="matrix(0.94, -0.342, 0.342, 0.94, -2361.888, 430.071)"/>
    </g>
    <path id="Path_81" data-name="Path 81" d="M11-2.8c.825,1.155,2.915,3.63,7.81,3.63a10.9,10.9,0,0,0,8.3-3.3A13.321,13.321,0,0,0,31.02-12.32a13.413,13.413,0,0,0-3.685-9.57,11.883,11.883,0,0,0-8.69-3.465A9.173,9.173,0,0,0,11-21.615V-24.53H3.08V12.6H11Zm5.72-15.73a6.218,6.218,0,0,1,4.29,1.7,6.165,6.165,0,0,1,1.87,4.455A6.718,6.718,0,0,1,20.955-7.7a6.288,6.288,0,0,1-4.235,1.7,6.458,6.458,0,0,1-4.51-1.87,6.355,6.355,0,0,1-1.76-4.345,6.566,6.566,0,0,1,1.87-4.51A6.1,6.1,0,0,1,16.72-18.535ZM35.145,0h7.92V-9.955c0-2.09.165-4.73,1.925-6.6a5.172,5.172,0,0,1,3.96-1.65,7.476,7.476,0,0,1,3.575.88l.44-7.425a7.951,7.951,0,0,0-2.585-.385,7.589,7.589,0,0,0-4.235,1.045,8.8,8.8,0,0,0-3.08,3.41v-3.85h-7.92Zm38.28-21.78a9.2,9.2,0,0,0-7.7-3.575A11.827,11.827,0,0,0,57.2-22a13.968,13.968,0,0,0-3.8,9.9A12.98,12.98,0,0,0,56.98-2.915,11.625,11.625,0,0,0,66.165.825a8.174,8.174,0,0,0,7.26-3.8V0h7.92V-24.53h-7.92Zm-5.72,3.245a6.628,6.628,0,0,1,4.4,1.7,6.221,6.221,0,0,1,1.815,4.51A6.231,6.231,0,0,1,72-7.7a5.866,5.866,0,0,1-4.125,1.7A6.505,6.505,0,0,1,63.195-7.92a6.326,6.326,0,0,1-1.65-4.4,6.129,6.129,0,0,1,1.815-4.455A6.244,6.244,0,0,1,67.705-18.535Zm37.4-5.445a13.981,13.981,0,0,0-6.215-1.375,13.069,13.069,0,0,0-9.35,3.465,13.18,13.18,0,0,0-4.07,9.68,12.788,12.788,0,0,0,3.85,9.35A13.181,13.181,0,0,0,98.835.825,12.253,12.253,0,0,0,105.1-.66V-7.81a7.73,7.73,0,0,1-5.06,1.925,6.519,6.519,0,0,1-4.785-1.98,6.352,6.352,0,0,1-1.65-4.4,6.463,6.463,0,0,1,1.815-4.62,6.308,6.308,0,0,1,4.51-1.76,7.952,7.952,0,0,1,5.17,1.87Zm18.645,5.83v-6.38h-4.895v-7.92h-7.92v7.92h-2.75v6.38h2.75V0h7.92V-18.15Zm3.135-6.38V0h7.92V-24.53Zm-.66-10.45a4.578,4.578,0,0,0,4.62,4.62,4.578,4.578,0,0,0,4.62-4.62,4.578,4.578,0,0,0-4.62-4.62A4.578,4.578,0,0,0,126.225-34.98Zm32.89,11a13.981,13.981,0,0,0-6.215-1.375,13.069,13.069,0,0,0-9.35,3.465,13.18,13.18,0,0,0-4.07,9.68,12.788,12.788,0,0,0,3.85,9.35A13.181,13.181,0,0,0,152.845.825a12.254,12.254,0,0,0,6.27-1.485V-7.81a7.73,7.73,0,0,1-5.06,1.925,6.519,6.519,0,0,1-4.785-1.98,6.352,6.352,0,0,1-1.65-4.4,6.463,6.463,0,0,1,1.815-4.62,6.308,6.308,0,0,1,4.51-1.76,7.952,7.952,0,0,1,5.17,1.87Zm11.55,8.36a5.509,5.509,0,0,1,1.375-2.64,5.367,5.367,0,0,1,4.015-1.595,5.35,5.35,0,0,1,3.74,1.375,6.237,6.237,0,0,1,1.595,2.86Zm18.04,3.905a13.99,13.99,0,0,0-3.465-9.955c-3.025-3.19-6.985-3.685-9.735-3.685a12.837,12.837,0,0,0-9.4,3.52,13.967,13.967,0,0,0-3.74,9.68,13.177,13.177,0,0,0,3.685,9.46c2.86,2.86,6.1,3.52,9.79,3.52A14.563,14.563,0,0,0,183.59-.99a10.968,10.968,0,0,0,4.73-6.16l-7.48-.77a4.8,4.8,0,0,1-1.705,2.035,6.506,6.506,0,0,1-3.19.715,5.314,5.314,0,0,1-4.07-1.54,6.7,6.7,0,0,1-1.485-4.18h18.315Z" transform="translate(587.227 192)"/>
  </g>
</svg>
